# AST/ASF file generated using VICON BodyLanguage
# -----------------------------------------------
:version 1.10
:name VICON
:units
  mass 1.0
  length 0.45
  angle deg
:documentation
   .ast/.asf automatically generated from VICON data using
   VICON BodyBuilder and BodyLanguage model FoxedUp or BRILLIANT.MOD
:root
   order TX TY TZ RX RY RZ
   axis XYZ
   position 0 0 0  
   orientation 0 0 0 
:bonedata
  begin
     id 1 
     name lhipjoint
     direction 0.57768 -0.667037 0.470475 
     length 2.36008 
     axis 0 0 0  XYZ
  end
  begin
     id 2 
     name lfemur
     direction 0.34202 -0.939693 0  
     length 6.97235  
     axis 0 0 20  XYZ
    dof rx ry rz
    limits (-160.0 20.0)
           (-70.0 70.0)
           (-60.0 70.0)
  end
  begin
     id 3 
     name ltibia
     direction 0.34202 -0.939693 0   
     length 6.93428   
     axis 0 0 20   XYZ
    dof rx
    limits (-10.0 170.0)
  end
  begin
     id 4 
     name lfoot
     direction 0.133018 -0.365463 0.921272   
     length 2.18603   
     axis -90 7.62852e-016 20   XYZ
    dof rx rz
    limits (-45.0 90.0)
           (-70.0 20.0)
  end
  begin
     id 5 
     name ltoes
     direction 1.53519e-011 -4.22055e-011 1   
     length 1.07924   
     axis -90 7.62852e-016 20   XYZ
    dof rx
    limits (-90.0 20.0)
  end
  begin
     id 6 
     name rhipjoint
     direction -0.577712 -0.667019 0.470462   
     length 2.36015  
     axis 0 0 0  XYZ 
  end
  begin
     id 7 
     name rfemur
     direction -0.34202 -0.939693 0   
     length 6.71195   
     axis 0 0 -20   XYZ
    dof rx ry rz
    limits (-160.0 20.0)
           (-70.0 70.0)
           (-70.0 60.0)
  end
  begin
     id 8 
     name rtibia
     direction -0.34202 -0.939693 0   
     length 7.04592   
     axis 0 0 -20   XYZ
    dof rx
    limits (-10.0 170.0)
 end
 begin
     id 9 
     name rfoot
     direction -0.113796 -0.312651 0.943027   
     length 2.03846  
     axis -90 -7.62852e-016 -20   XYZ
    dof rx rz
    limits (-45.0 90.0)
           (-20.0 70.0)
  end
  begin
     id 10 
     name rtoes
     direction -1.53586e-011 -4.218e-011 1   
     length 1.01562   
     axis -90 -7.62852e-016 -20   XYZ
    dof rx
    limits (-90.0 20.0)
  end
  begin
     id 11 
     name lowerback
     direction -0.0417299 0.991937 -0.119667   
     length 2.05257   
     axis 0 0 0   XYZ
    dof rx ry rz
    limits (-20.0 45.0)
           (-30.0 30.0)
           (-30.0 30.0)
  end
  begin
     id 12 
     name upperback
     direction -0.00017666 0.999999 0.00105178   
     length 2.05693   
     axis 0 0 0   XYZ
    dof rx ry rz
    limits (-20.0 45.0)
           (-30.0 30.0)
           (-30.0 30.0)
  end
  begin
     id 13 
     name thorax
     direction 0.0185169 0.998203 0.0569866   
     length 2.0932   
     axis 0 0 0   XYZ
    dof rx ry rz
    limits (-20.0 45.0)
           (-30.0 30.0)
           (-30.0 30.0)
  end
  begin
     id 14 
     name lowerneck
     direction -0.0212406 0.982645 0.184277   
     length 1.72509   
     axis 0 0 0   XYZ
    dof rx ry rz
    limits (-20.0 45.0)
           (-30.0 30.0)
           (-30.0 30.0)
  end
  begin
     id 15 
     name upperneck
     direction 0.00528579 0.965323 -0.261004   
     length 1.76294   
     axis 0 0 0   XYZ
    dof rx ry rz
    limits (-20.0 45.0)
           (-30.0 30.0)
           (-30.0 30.0)
  end
  begin
     id 16
     name head
     direction 0.00695421 0.994078 -0.108445  
     length 1.78678  
     axis 0 0 0   XYZ
    dof rx ry rz
    limits (-20.0 45.0)
           (-30.0 30.0)
           (-30.0 30.0)
  end
  begin
     id 17 
     name lclavicle
     direction 0.97277 0.211305 -0.095232  
     length 3.84823  
     axis 0 0 0   XYZ
    dof ry rz
    limits (-20.0 10.0)
           (0.0 20.0)
  end
  begin
     id 18 
     name lhumerus
     direction 1 -4.48957e-011 -1.98313e-027   
     length 4.97185   
     axis 180 -30 -90   XYZ
    dof rx ry rz
    limits (-60.0 90.0)
           (-90.0 90.0)
           (-90.0 90.0)
  end
  begin
     id 19
     name lradius
     direction 1 -4.4898e-011 7.31063e-027   
     length 3.35811   
     axis 180 -30 -90   XYZ
    dof rx
    limits (-10.0 170.0)
  end
  begin
     id 20
     name lwrist
     direction 1 -4.48938e-011 9.95048e-027   
     length 1.67905   
     axis -8.75986e-015 90 90   XYZ
    dof ry
    limits (-180.0 0.0)
 end
  begin
     id 21 
     name lhand
     direction 1 -4.4901e-011 1.9901e-026   
     length 0.622776   
     axis -1.26985e-014 90 90   XYZ
    dof rx rz
    limits (-90.0 90.0)
           (-45.0 45.0)
  end
  begin
     id 22 
     name lfingers
     direction 1 -4.48961e-011 3.98019e-026   
     length 0.502098   
     axis -2.5397e-014 90 90   XYZ
    dof rx
    limits (0.0 90.0)
  end
  begin
     id 23
     name lthumb
     direction 0.707107 -6.34933e-011 0.707107   
     length 0.720915   
     axis -90 45 2.85299e-015   XYZ
    dof rx rz
    limits (-45.0 45.0)
           (-45.0 45.0)
  end
  begin
     id 24 
     name rclavicle
     direction -0.990867 0.133739 -0.0172226   
     length 3.78845  
     axis 0 0 0   XYZ 
    dof ry rz
    limits (-10.0 20.0)
           (-20.0 0.0)
  end
  begin
     id 25 
     name rhumerus
     direction -1 -4.48972e-011 -1.99267e-027  
     length 4.96493   
     axis 180 30 90   XYZ
    dof rx ry rz
    limits (-90.0 60.0)
           (-90.0 90.0)
           (-90.0 90.0)
  end
  begin
     id 26 
     name rradius
     direction -1 -4.48969e-011 8.96093e-027   
     length 3.34929   
     axis 180 30 90   XYZ
    dof rx
    limits (-10.0 170.0)
  end
  begin
     id 27 
     name rwrist
     direction -1 -4.48953e-011 9.95048e-027   
     length 1.67464   
     axis -8.75986e-015 -90 -90   XYZ
    dof ry
    limits (-180.0 0.0)
  end
  begin
     id 28
     name rhand
     direction -1 -4.49001e-011 1.9901e-026   
     length 0.638041   
     axis -1.26985e-014 -90 -90   XYZ
    dof rx rz
    limits (-90.0 90.0)
           (-45.0 45.0)
  end
  begin
     id 29
     name rfingers
     direction -1 -4.48967e-011 3.98019e-026   
     length 0.514405   
     axis -2.5397e-014 -90 -90   XYZ
    dof rx
    limits (0.0 90.0)
  end
  begin
     id 30
     name rthumb
     direction -0.707107 -6.34904e-011 0.707107   
     length 0.738586   
     axis -90 -45 -2.85299e-015   XYZ
    dof rx rz
    limits (-45.0 45.0)
           (-45.0 45.0)
  end
:hierarchy
  begin
    root lhipjoint rhipjoint lowerback
    lhipjoint lfemur
    lfemur ltibia
    ltibia lfoot
    lfoot ltoes
    rhipjoint rfemur
    rfemur rtibia
    rtibia rfoot
    rfoot rtoes
    lowerback upperback
    upperback thorax
    thorax lowerneck lclavicle rclavicle
    lowerneck upperneck
    upperneck head
    lclavicle lhumerus
    lhumerus lradius
    lradius lwrist
    lwrist lhand lthumb
    lhand lfingers
    rclavicle rhumerus
    rhumerus rradius
    rradius rwrist
    rwrist rhand rthumb
    rhand rfingers
  end

#!OML:ASF E:\Mandelcareful walks\Project 1\Capture day 1\Session 1\Subject1.ASF
:FULLY-SPECIFIED
:DEGREES
65
root -23.8521 16.3871 -0.50451 179.393 72.9829 173.675
lowerback -7.55352 1.58134 -3.15782
upperback 2.23646 2.4142 0.320548
thorax 6.4394 1.05498 2.42088
lowerneck -6.79645 16.4747 13.891
upperneck 24.5146 25.4612 -10.6605
head 12.4084 12.1473 -2.19765
rclavicle 3.39425e-014 -5.36719e-015
rhumerus -32.1932 -8.34062 -82.276
rradius 27.2331
rwrist -6.12371
rhand -11.0254 -28.4831
rfingers 7.12502
rthumb 14.996 -57.9201
lclavicle 3.39425e-014 -5.36719e-015
lhumerus -27.2957 3.83842 89.4287
lradius 27.4803
lwrist 7.51228
lhand -23.8595 -12.0495
lfingers 7.12502
lthumb 2.61307 17.9142
rfemur -4.09168 8.44869 14.2166
rtibia 24.9121
rfoot -44.6201 -34.7781
rtoes 20.3289
lfemur -13.6675 -10.0141 -13.612
ltibia 29.8428
lfoot -28.6441 14.844
ltoes 19.1364
66
root -23.8514 16.3934 -0.505539 179.399 73.1668 173.653
lowerback -7.56841 1.5867 -3.15768
upperback 2.18826 2.42174 0.303473
thorax 6.3971 1.06044 2.40326
lowerneck -6.68402 16.4712 14.0313
upperneck 24.464 25.4649 -10.7427
head 12.4016 12.1594 -2.25236
rclavicle 3.34952e-014 2.98177e-015
rhumerus -32.1366 -8.31258 -82.3082
rradius 27.2587
rwrist -6.1311
rhand -11.3244 -28.452
rfingers 7.12502
rthumb 14.7079 -57.9103
lclavicle 3.34952e-014 2.98177e-015
lhumerus -27.3749 3.80392 89.4164
lradius 27.5372
lwrist 7.55515
lhand -23.0438 -12.6365
lfingers 7.12502
lthumb 3.40082 17.3161
rfemur -4.17245 8.04899 14.1317
rtibia 24.9059
rfoot -43.9963 -34.5778
rtoes 19.8824
lfemur -13.5851 -9.60009 -13.6724
ltibia 29.8472
lfoot -28.677 14.5004
ltoes 17.8134
67
root -23.8496 16.3934 -0.507536 179.253 73.3798 173.507
lowerback -7.60262 1.58548 -3.24646
upperback 2.17755 2.42743 0.344335
thorax 6.39988 1.05883 2.49762
lowerneck -6.59203 16.4615 13.9965
upperneck 24.3824 25.4589 -10.781
head 12.3516 12.1585 -2.27361
rclavicle -1.70209e-014 1.59028e-015
rhumerus -32.1728 -8.14205 -82.2683
rradius 27.5315
rwrist -6.26389
rhand -11.8457 -28.6895
rfingers 7.12502
rthumb 14.2057 -58.1837
lclavicle -1.70209e-014 1.59028e-015
lhumerus -27.3764 4.00034 89.438
lradius 27.4308
lwrist 7.383
lhand -22.4163 -13.057
lfingers 7.12502
lthumb 4.00675 16.8851
rfemur -4.2462 7.91639 14.0333
rtibia 24.9413
rfoot -43.6347 -34.4337
rtoes 19.7235
lfemur -13.5519 -9.9998 -13.6751
ltibia 29.7932
lfoot -28.8206 15.1476
ltoes 19.424
68
root -23.8479 16.3933 -0.509506 178.938 73.53 173.181
lowerback -7.61784 1.57021 -3.36967
upperback 2.15752 2.41871 0.358314
thorax 6.38274 1.04996 2.58041
lowerneck -6.55338 16.4481 13.9213
upperneck 24.3085 25.4361 -10.7881
head 12.3015 12.1464 -2.2781
rclavicle -3.84897e-014 7.35503e-015
rhumerus -32.2108 -7.92532 -82.2808
rradius 27.7762
rwrist -6.47962
rhand -12.138 -28.6662
rfingers 7.12502
rthumb 13.924 -58.18
lclavicle -3.84897e-014 7.35503e-015
lhumerus -27.3601 4.32598 89.3975
lradius 27.2313
lwrist 7.06734
lhand -22.184 -13.1658
lfingers 7.12502
lthumb 4.23107 16.7719
rfemur -4.27227 8.04091 13.9256
rtibia 24.9733
rfoot -43.6732 -34.2703
rtoes 20.0236
lfemur -13.488 -10.1003 -13.7671
ltibia 29.7452
lfoot -28.8976 15.3577
ltoes 20.0891
69
root -23.8449 16.3946 -0.510589 178.796 73.6721 173.074
lowerback -7.61772 1.5717 -3.43195
upperback 2.16648 2.42539 0.387511
thorax 6.38814 1.04994 2.64699
lowerneck -6.74983 16.4583 13.7596
upperneck 24.4254 25.4271 -10.6519
head 12.3382 12.1281 -2.19418
rclavicle -1.01132e-014 1.49089e-014
rhumerus -32.1498 -7.62629 -82.352
rradius 27.9504
rwrist -6.82878
rhand -12.1726 -28.4625
rfingers 7.12502
rthumb 13.8907 -57.9786
lclavicle -1.01132e-014 1.49089e-014
lhumerus -27.3077 4.55675 89.3847
lradius 27.0318
lwrist 6.8769
lhand -21.8628 -13.3281
lfingers 7.12502
lthumb 4.54121 16.6032
rfemur -4.23104 8.0009 13.8946
rtibia 24.9884
rfoot -43.5868 -34.0635
rtoes 20.1269
lfemur -13.3651 -10.0751 -13.8027
ltibia 29.7086
lfoot -28.9691 15.3918
ltoes 19.8235
70
root -23.8413 16.3909 -0.508583 179.005 73.8385 173.368
lowerback -7.58923 1.55913 -3.4557
upperback 2.18512 2.40566 0.462276
thorax 6.38889 1.03748 2.73557
lowerneck -7.09618 16.5086 13.6099
upperneck 24.7618 25.4677 -10.3874
head 12.4793 12.1301 -2.03741
rclavicle 5.25537e-014 7.95139e-015
rhumerus -32.0904 -7.17141 -82.5019
rradius 28.219
rwrist -7.26408
rhand -12.1642 -28.6037
rfingers 7.12502
rthumb 13.8987 -58.1193
lclavicle 5.25537e-014 7.95139e-015
lhumerus -27.2833 4.61276 89.3912
lradius 26.8831
lwrist 6.95887
lhand -21.5765 -13.4257
lfingers 7.12502
lthumb 4.81771 16.4995
rfemur -4.19799 8.21034 14.0326
rtibia 25.0125
rfoot -43.621 -34.181
rtoes 19.9864
lfemur -13.2218 -10.0135 -13.6963
ltibia 29.671
lfoot -29.0316 15.4288
ltoes 19.5476
71
root -23.8398 16.3906 -0.50614 179.283 74.0058 173.697
lowerback -7.52751 1.55722 -3.45104
upperback 2.1519 2.39653 0.510004
thorax 6.31711 1.03431 2.77859
lowerneck -7.25426 16.5143 13.5991
upperneck 24.9697 25.4546 -10.2382
head 12.5652 12.1232 -1.96776
rclavicle -4.62174e-015 -6.95746e-015
rhumerus -32.1103 -6.86256 -82.6296
rradius 28.4951
rwrist -7.53131
rhand -12.097 -28.779
rfingers 7.12502
rthumb 13.9635 -58.29
lclavicle -4.62174e-015 -6.95746e-015
lhumerus -27.3481 4.62747 89.3369
lradius 26.7521
lwrist 7.00125
lhand -21.368 -13.5734
lfingers 7.12502
lthumb 5.019 16.3471
rfemur -4.21991 8.35239 14.1604
rtibia 25.0457
rfoot -43.6296 -34.2014
rtoes 19.8646
lfemur -13.1343 -10.096 -13.5775
ltibia 29.6302
lfoot -29.1501 15.5956
ltoes 19.842
72
root -23.8423 16.3938 -0.509258 178.995 74.0826 173.375
lowerback -7.51948 1.55441 -3.48953
upperback 2.11881 2.39774 0.474619
thorax 6.27745 1.0355 2.76214
lowerneck -7.24539 16.4674 13.6295
upperneck 24.915 25.3884 -10.3081
head 12.5483 12.0915 -2.01131
rclavicle -7.7526e-015 -1.19271e-015
rhumerus -32.0767 -6.79061 -82.6718
rradius 28.6841
rwrist -7.56682
rhand -11.948 -28.7834
rfingers 7.12502
rthumb 14.1071 -58.2845
lclavicle -7.7526e-015 -1.19271e-015
lhumerus -27.4427 4.59479 89.3295
lradius 26.6996
lwrist 6.87572
lhand -21.3486 -13.6063
lfingers 7.12502
lthumb 5.03774 16.3138
rfemur -4.30065 7.84233 13.9671
rtibia 25.0871
rfoot -43.1057 -33.8557
rtoes 19.5207
lfemur -13.1464 -10.4588 -13.6856
ltibia 29.6021
lfoot -29.3298 15.9635
ltoes 19.6226
73
root -23.8427 16.3924 -0.512594 178.484 74.1564 172.83
lowerback -7.58858 1.56278 -3.54334
upperback 2.13693 2.42266 0.39155
thorax 6.33599 1.04576 2.71154
lowerneck -7.26472 16.43 13.7444
upperneck 24.8045 25.3401 -10.4866
head 12.5477 12.0617 -2.09583
rclavicle 3.85642e-014 -1.70955e-014
rhumerus -31.9771 -6.7432 -82.793
rradius 28.9023
rwrist -7.70162
rhand -11.7841 -28.7956
rfingers 7.12502
rthumb 14.265 -58.2857
lclavicle 3.85642e-014 -1.70955e-014
lhumerus -27.4716 4.51347 89.3054
lradius 26.6767
lwrist 6.78068
lhand -21.5222 -13.2896
lfingers 7.12502
lthumb 4.87013 16.6344
rfemur -4.38343 7.68656 13.7507
rtibia 25.1513
rfoot -42.8325 -33.7535
rtoes 19.3666
lfemur -13.1426 -10.7238 -13.8574
ltibia 29.5822
lfoot -29.4323 16.2458
ltoes 19.2306
74
root -23.8378 16.39 -0.512451 177.984 74.2549 172.325
lowerback -7.64882 1.57971 -3.62185
upperback 2.1451 2.4622 0.293333
thorax 6.37767 1.06314 2.66015
lowerneck -7.29305 16.395 13.9566
upperneck 24.7467 25.3066 -10.6991
head 12.5922 12.0411 -2.19757
rclavicle 9.54166e-015 -1.94809e-014
rhumerus -31.8902 -6.58985 -83.0139
rradius 29.1444
rwrist -8.07844
rhand -11.6519 -28.7915
rfingers 7.12502
rthumb 14.3924 -58.2725
lclavicle 9.54166e-015 -1.94809e-014
lhumerus -27.4896 4.3922 89.1959
lradius 26.5795
lwrist 6.77254
lhand -21.8034 -12.8992
lfingers 7.12502
lthumb 4.5986 17.0309
rfemur -4.38862 8.11074 13.6676
rtibia 25.2179
rfoot -43.1704 -33.8788
rtoes 19.5454
lfemur -13.0646 -10.4863 -14.014
ltibia 29.5715
lfoot -29.3964 16.1056
ltoes 19.3104
75
root -23.8329 16.3892 -0.508945 177.591 74.2383 171.893
lowerback -7.67347 1.52076 -3.7969
upperback 2.10424 2.40482 0.23943
thorax 6.34839 1.03049 2.69477
lowerneck -7.36136 16.3947 14.0804
upperneck 24.8217 25.3091 -10.7405
head 12.6615 12.0411 -2.2166
rclavicle 6.13002e-014 -7.55382e-015
rhumerus -31.8024 -6.2892 -83.2434
rradius 29.3235
rwrist -8.41343
rhand -11.6725 -28.814
rfingers 7.12502
rthumb 14.3725 -58.2965
lclavicle 6.13002e-014 -7.55382e-015
lhumerus -27.5524 4.35776 89.0842
lradius 26.4238
lwrist 6.65338
lhand -22.1618 -12.672
lfingers 7.12502
lthumb 4.25257 17.2653
rfemur -4.34348 8.82586 13.6848
rtibia 25.2452
rfoot -43.9825 -34.145
rtoes 19.845
lfemur -13.062 -9.85839 -14.1413
ltibia 29.6079
lfoot -29.2375 15.5485
ltoes 18.8115
76
root -23.8367 16.3931 -0.511476 177.703 74.4764 171.993
lowerback -7.60251 1.54563 -3.73232
upperback 2.05196 2.42633 0.249932
thorax 6.25274 1.04641 2.6682
lowerneck -7.4593 16.4245 14.0441
upperneck 24.9452 25.3222 -10.5951
head 12.7028 12.0483 -2.14772
rclavicle 4.39811e-015 -4.57205e-015
rhumerus -31.7664 -6.04801 -83.3996
rradius 29.5223
rwrist -8.53687
rhand -11.8663 -28.8867
rfingers 7.12502
rthumb 14.1859 -58.3823
lclavicle 4.39811e-015 -4.57205e-015
lhumerus -27.6115 4.57029 88.9945
lradius 26.256
lwrist 6.43138
lhand -22.2394 -12.7088
lfingers 7.12502
lthumb 4.17763 17.23
rfemur -4.44589 8.73996 13.6644
rtibia 25.2197
rfoot -43.5112 -34.1584
rtoes 19.4188
lfemur -13.0601 -9.51144 -14.1325
ltibia 29.6769
lfoot -29.3131 15.4271
ltoes 18.1906
77
root -23.8344 16.3901 -0.512419 178.094 74.6302 172.481
lowerback -7.55124 1.59911 -3.46522
upperback 2.05014 2.47228 0.194054
thorax 6.23082 1.08102 2.46349
lowerneck -7.40663 16.3944 14.1413
upperneck 24.8501 25.2389 -10.5963
head 12.6565 12.0224 -2.18492
rclavicle -7.60103e-014 -5.96354e-015
rhumerus -31.7656 -6.08673 -83.6106
rradius 29.7233
rwrist -8.64874
rhand -12.0018 -29.0549
rfingers 7.12502
rthumb 14.0553 -58.5596
lclavicle -7.60103e-014 -5.96354e-015
lhumerus -27.6268 4.69937 88.7729
lradius 26.042
lwrist 6.27136
lhand -22.2145 -12.8386
lfingers 7.12502
lthumb 4.20162 17.0997
rfemur -4.37727 8.76969 13.8142
rtibia 25.1736
rfoot -43.2777 -34.2338
rtoes 19.2847
lfemur -12.9842 -9.64024 -13.9733
ltibia 29.733
lfoot -29.4786 15.5968
ltoes 18.2931
